<svg xmlns="http://www.w3.org/2000/svg" width="333.791" height="305.0987" viewBox="0 0 333.791 305.0987"><defs><style>.cls-1{fill:#e6d9c6;}.cls-2{fill:#fff;}.cls-3{fill:none;}.cls-3,.cls-4{stroke:#231f20;stroke-miterlimit:10;}.cls-4,.cls-6{fill:#231f20;}.cls-5{opacity:0.35;}.cls-7{fill:#b56d29;}</style></defs><g id="Layer_2" data-name="Layer 2"><g id="Layer_1-2" data-name="Layer 1"><path class="cls-1" d="M208.7,82.7186c0,44.0428-42.62,79.7465-95.1948,79.7465-21.5,0-37.8735-5.9993-44.1631-9.0828C45.3217,141.6065,18.3608,114.86,18.31,82.7186c-.0681-43.3219,48.778-79.7465,95.1947-79.7465C166.08,2.9721,208.7,38.6759,208.7,82.7186Z"/><rect class="cls-2" x="85.0994" y="105.3588" width="50.6866" height="36.3421" rx="18.171"/><path class="cls-1" d="M167.4288,16.9917c1.1668-2.0723,5.1176-8.4645,12.934-10.9617A21.7279,21.7279,0,0,1,208.53,26.765a21.8986,21.8986,0,0,1-.9768,6.4586,23.1768,23.1768,0,0,1-9.77,12.2845"/><path class="cls-3" d="M161.702,15.5124a21.7137,21.7137,0,1,1,29.7806,29.5821"/><path class="cls-1" d="M58.3352,13.5925A23.86,23.86,0,0,0,46.6641,3.4674a22.1522,22.1522,0,0,0-6.375-1.4086A21.7111,21.7111,0,0,0,17.1644,22.2576a22.0315,22.0315,0,0,0,.5388,6.5069c2.0122,8.4832,8.6959,13.6732,9.0464,13.4214.0156-.0113.0214-.0353.2131-.31.1045-.15.1559-.2185.2509-.3514.182-.2546.2185-.314.3626-.5212.19-.2739.3237-.4434.4206-.5718.4651-.6166.8865-1.3412,1.2978-1.9316a13.6288,13.6288,0,0,1,1.3418-1.6009c2.8707-3.1086,4.0543-4.7936,7.0924-7.8148a80.3,80.3,0,0,1,8.237-7.13"/><ellipse class="cls-4" cx="59.8776" cy="84.6452" rx="5.1825" ry="8.4456"/><ellipse class="cls-4" cx="151.0514" cy="84.6452" rx="5.1825" ry="8.4456"/><path class="cls-3" d="M106.1791,117.7743c-1.134,2.3371-3.3476,3.6292-5.3224,3.2754a4.3706,4.3706,0,0,1-2.5247-1.57"/><path class="cls-3" d="M106.3361,117.5341c1.134,2.3371,3.3476,3.6292,5.3224,3.2754a4.371,4.371,0,0,0,2.5247-1.57"/><g class="cls-5"><path class="cls-6" d="M284.3988,298.5c-12.9906.1635-26.363.3287-43.8615.393-6.513.0238-11.8869.0271-15.695.0255l.7479-.3816.0088-.0053.003,0,1.7468-.891c18.5549-.0762,31.2433-.3205,39.5128-.536,3.7371-.0972,15.3245-.4168,25.92-.7156,10.2176-.2881,12.6886-.3651,16.8524-.3959,13.2821-.0992,20.4554.44,20.8025.468,1.3111.1029,4.7467.3713,1.4974.7435-2.8849.33-9.3781.5532-13.228.6823C316.058,297.9751,309.3444,298.1858,284.3988,298.5Z"/><path class="cls-6" d="M204.24,298.755l7.6856.0927-.0219.0016c-2.4181-.0016-4.9948-.0213-7.1682-.08C204.5712,298.7645,204.4041,298.76,204.24,298.755Z"/><path class="cls-6" d="M87.6314,297.5805c-10.2071-.5594-15.8029-1.3127-9.6893-2.1565,3.662-.5057,11.1369-.9885,21.0088-1.42-5.0372-.157-7.1193-.4369-4.7889-.757,3.5775-.4914,16.1978-.89,28.1878-.89,8.04,0,13.7561.1791,15.5666.4455l-.9089.0287c19.4333-.4222,40.8073-.6754,59.9273-.6754,20.68,0,38.173.2262,50.9812.611,5.6815-.2639,13.9635-.4414,21.9635-.4414,11.99,0,18.81.3984,15.2322.89-2.3542.3233-8.623.6061-16.06.7622,3.1052.4361,3.0607.9271-.72,1.4463-6.2.8516-21.3256,1.627-41.0966,2.2081-22.1473.6521-50.1191,1.06-77.8891,1.06-21.5,0-36.08-.2459-41.4507-.3721C100.5278,298.1469,93.3488,297.894,87.6314,297.5805Z"/><path class="cls-6" d="M175.441,300.1243l-30.05.2815q25.1351-.58,50.4785-1.1741,14.9217-.35,29.7163-.7-25.1783,1.0808-50.3394,2.1618C176.6667,300.4435,176.0908,300.2452,175.441,300.1243Z"/><path class="cls-6" d="M195.87,299.2317q-25.3579.5944-50.4785,1.1741l30.05-.2815c.65.1209,1.2257.3192-.1944.5692q25.1783-1.0807,50.3394-2.1618Q210.7845,298.8815,195.87,299.2317Zm16.8343,2.561a79.8707,79.8707,0,0,1-11.8823,1.3806c-27.379,1.416-108.0134.9771-121.9226.8959,4.4132-.1213,8.3879-.2565,11.1981-.3774q22.99-.774,45.9727-1.5483c-.7125-.0382-1.5211-.0795-3.466-.1009-1.2515-.0135-5.04-.0426-17.8.2349-18.3821.4-23.081.7336-23.2292.7786-.1046.0336-.0554.064.0164.0857a1.5655,1.5655,0,0,0,.18.0356c.6021.1275,2.2156.1668,2.5414.2127.4365.0623-1.2481.1742-4.216.3017l-11.2081.3774q-1.1043.03-2.23.059c-6.2606.1595-22.0067.5627-38.7751.4513-15.9272-.1062-26.819-.632-26.0948-1.3344a.1416.1416,0,0,1,.0415-.0373c.153-.1021,1.6908-.89,17.7751-1.4635,6.9942-.2492,14.3812-.3738,19.7308-.4369-1.1025-.7454,5.352-1.49,6.9815-1.6786,7.1862-.8291,19.14-1.5082,29.826-1.9979l11.0906,1.38c-1.6647.3619-2.7534.8754,1.6973,1.3725,1.1461.1283,2.4792.2336,3.8368.3246l.0672.0045q.6407.0417,1.2782.08l40.5889-.38,27.1221-.6307,40.0781-.9324.0219-.0016.0271,0,13.6494-.3172-.003,0-.0088.0053C223.7545,299.3272,220.21,300.439,212.704,301.7927Z"/><path class="cls-6" d="M136.07,302.1435q-22.99.7738-45.9727,1.5483c2.9679-.1275,4.6525-.2394,4.216-.3017-.3258-.0459-1.9393-.0852-2.5414-.2127a1.5655,1.5655,0,0,1-.18-.0356c-.0718-.0217-.121-.0521-.0164-.0857.1482-.045,4.8471-.3786,23.2292-.7786,12.76-.2775,16.5482-.2484,17.8-.2349C134.5488,302.064,135.3574,302.1053,136.07,302.1435Z"/><path class="cls-6" d="M171.7923,299.778l.0332.0037-27.1221.6307-40.5889.38q-.6375-.0381-1.2782-.08Z"/><path class="cls-6" d="M78.8891,304.0692l11.2081-.3774c-2.81.1209-6.7849.2561-11.1981.3774Z"/><path class="cls-6" d="M171.7923,299.778l-68.956.9348-.0672-.0045c6.2987-.1853,12.9733-.4222,12.6992-.6029-.0557-.0418-.4021-.0533-.3846-.0914.1227-.1844,11.71-.5164,21.5654-.6463,14.1706-.1869,28.441-.0262,34.2056.3426C171.2737,299.7366,171.5806,299.76,171.7923,299.778Z"/><path class="cls-6" d="M211.9255,298.8477l-7.6856-.0927c.1642.005.3313.01.4955.0144,2.1734.0586,4.75.0783,7.1682.08l-40.0781.9324-.0332-.0037c-.2117-.0177-.5186-.0414-.9376-.0677-5.7646-.3688-20.035-.53-34.2056-.3426-9.8558.13-21.4427.4619-21.5654.6463-.0175.0381.3289.05.3846.0914.2741.1807-6.4.4176-12.6992.6029-1.3576-.091-2.6907-.1963-3.8368-.3246-4.4507-.4971-3.362-1.0106-1.6973-1.3725l-11.0906-1.38,1.487-.05c5.7174.3135,12.8964.5664,20.2643.74,5.371.1262,19.9507.3721,41.4507.3721,27.77,0,55.7418-.4081,77.8891-1.06l.1133.0078-1.7468.891-13.6494.3172Z"/><path class="cls-3" d="M87.6314,297.5805c5.7174.3135,12.8964.5664,20.2643.74,5.371.1262,19.9507.3721,41.4507.3721,27.77,0,55.7418-.4081,77.8891-1.06,19.771-.5811,34.8963-1.3565,41.0966-2.2081,3.78-.5192,3.825-1.01.72-1.4463,7.4368-.1561,13.7056-.4389,16.06-.7622,3.5776-.4914-3.2422-.89-15.2322-.89-8,0-16.282.1775-21.9635.4414-12.8082-.3848-30.3012-.611-50.9812-.611-19.12,0-40.494.2532-59.9273.6754l.9089-.0287c-1.8105-.2664-7.5266-.4455-15.5666-.4455-11.99,0-24.61.3983-28.1878.89-2.33.32-.2483.6,4.7889.757-9.8719.4315-17.3468.9143-21.0088,1.42C71.8285,296.2678,77.4243,297.0211,87.6314,297.5805Z"/><path class="cls-3" d="M225.586,298.5317q-25.1783,1.0808-50.3394,2.1618c1.42-.25.8442-.4483.1944-.5692l-30.05.2815q25.1351-.58,50.4785-1.1741Q210.7914,298.8819,225.586,298.5317Z"/><path class="cls-3" d="M225.586,298.5317l.013,0"/><line class="cls-3" x1="225.602" y1="298.5309" x2="225.599" y2="298.5313"/><line class="cls-3" x1="225.599" y1="298.5313" x2="225.5902" y2="298.5366"/><path class="cls-3" d="M78.8991,304.0692c13.9092.0812,94.5436.52,121.9226-.8959a79.8707,79.8707,0,0,0,11.8823-1.3806c7.5055-1.3537,11.0505-2.4655,12.8862-3.2561"/><path class="cls-3" d="M90.0972,303.6918l-11.2081.3774"/><path class="cls-3" d="M90.0972,303.6918c2.9679-.1275,4.6525-.2394,4.216-.3017-.3258-.0459-1.9393-.0852-2.5414-.2127a1.5655,1.5655,0,0,1-.18-.0356c-.0718-.0217-.121-.0521-.0164-.0857.1482-.045,4.8471-.3786,23.2292-.7786,12.76-.2775,16.5482-.2484,17.8-.2349,1.9449.0214,2.7535.0627,3.466.1009Q113.08,302.9174,90.0972,303.6918Z"/><path class="cls-3" d="M225.59,298.5366l-.7479.3816c3.8081.0016,9.182-.0017,15.695-.0255,17.4985-.0643,30.8709-.2295,43.8615-.393,24.9456-.3139,31.6592-.5246,34.3067-.6135,3.85-.1291,10.3431-.352,13.228-.6823,3.2493-.3722-.1863-.6406-1.4974-.7435-.3471-.0278-7.52-.5672-20.8025-.468-4.1638.0308-6.6348.1078-16.8524.3959-10.5951.2988-22.1825.6184-25.92.7156-8.2695.2155-20.9579.46-39.5128.536l-1.7468.891-13.6494.3172-.0271,0-7.6856-.0927c.1642.005.3313.01.4955.0144,2.1734.0586,4.75.0783,7.1682.08l-40.0781.9324-27.1221.6307-40.5889.38q-.6375-.0381-1.2782-.08l68.956-.9348c-.2117-.0177-.5186-.0414-.9376-.0677-5.7646-.3688-20.035-.53-34.2056-.3426-9.8558.13-21.4427.4619-21.5654.6463-.0175.0381.3289.05.3846.0914.2741.1807-6.4.4176-12.6992.6029-1.3576-.091-2.6907-.1963-3.8368-.3246-4.4507-.4971-3.362-1.0106-1.6973-1.3725l-11.0906-1.38c-10.6856.49-22.64,1.1688-29.826,1.9979-1.63.1881-8.084.9332-6.9815,1.6786-5.35.0631-12.7366.1877-19.7308.4369-16.0843.5733-17.6221,1.3614-17.7751,1.4635a.1416.1416,0,0,0-.0415.0373c-.7242.7024,10.1676,1.2282,26.0948,1.3344,16.7684.1114,32.5145-.2918,38.7751-.4513q1.1255-.0288,2.23-.059h.01c4.4132-.1213,8.3879-.2565,11.1981-.3774"/></g><path class="cls-4" d="M107.8947,116.9736l2.1017-1.9776a2.2745,2.2745,0,0,0-1.5587-3.9308h-4.2033a2.2744,2.2744,0,0,0-1.5586,3.9308l2.1016,1.9776A2.2743,2.2743,0,0,0,107.8947,116.9736Z"/><rect class="cls-3" x="81.5623" y="102.6962" width="50.6866" height="36.3421" rx="18.171"/><path class="cls-1" d="M279.2659,107.12a30.73,30.73,0,0,0-19.6808-12.531,19.539,19.539,0,0,0-3.83.0208,19.0822,19.0822,0,0,0-2.6042.5284c-4.1356,1.1862-10.511,7.4536-11.7892,8.6969-.6573.6393-3.3466,2.9534-8.72,7.5872-.7566.6525-6.88,5.9265-10.4252,8.6866a87.1978,87.1978,0,0,1-20.3611,11.6514s-13.3064,2.7729-14.3063,2.9737c-.3733.0749-.5608.1048-.7921.1362a7.0129,7.0129,0,0,0-.773.12,3.6278,3.6278,0,0,1-.7826.09c-.191.001-.1944-.018-.447-.0256,0,0-.2017-.0061-.4074.0028-.5562.024-1.7819,1.3678-2.4369,1.98a8.5815,8.5815,0,0,1-1.3708,1.0408A110.1765,110.1765,0,0,1,152.62,153.7592a108.05,108.05,0,0,1-27.5783,6.6194c-3.6141.3632-6.9922.5128-10.1111.52-5.2339.0119-9.86-.5426-18.9-1.63-6.5466-.7873-9.8827-1.1949-12.9589-1.8754A77.53,77.53,0,0,1,69.8,153.2559c-2.73-1.1517-5.3188-2.4676-5.85-2.7391-2.28-1.1645-4.07-2.1975-4.9275-2.6937-1.7889-1.0354-1.79-1.1066-2.8847-1.7216a18.5252,18.5252,0,0,1-1.6086-1.0023c-.2905-.2026-.499-.3606-.5871-.427-1.1668-.88-2.356-1.6362-3.7346-2.6175-.9115-.6488-1.6587-1.2315-3.153-2.397-1.0632-.8292-1.9629-1.5518-2.6543-2.1142-.1862-.1462-.4533-.3648-.76-.65-.371-.3453-.4668-.4784-.6407-.4943-.1076-.01-.456.0062-.9217.8818a95.4913,95.4913,0,0,0-5.6328,11.345,105.755,105.755,0,0,0-5.7181,19.06,112.2441,112.2441,0,0,0-2.1358,17.0953A121.0207,121.0207,0,0,0,30.1584,209.69a85.3142,85.3142,0,0,0,2.5436,11.9382c1.5062,4.9365,6.0626,19.8682,19.8826,30.0486,5.9258,4.3652,15.5128,11.4274,26.46,8.4485,10.5266-2.8646,15.2875-13.1028,16.2413-15.317.2279-.529,5.0741-12.1406.6414-19.5488a37.2727,37.2727,0,0,0-4.9988-6.3317c-.7017-.6961-1.85-1.7693-3.9487-3.7312-2.3625-2.2084-2.5491-2.345-3.0105-2.8672a15.5892,15.5892,0,0,1-2.3958-3.6737c1.732-.9493,4.9607-4.8671,5.9948-6.1228a14.6342,14.6342,0,0,0,2.935-5.5177,5.1274,5.1274,0,0,0,.0838-2.31c-.2553-1.2012-.8164-1.4034-1.1812-2.372-.7107-1.887.3514-3.9542.8883-4.9992a12.5554,12.5554,0,0,1,2.3366-3.0084,26.1728,26.1728,0,0,1,2.4535-2.2491,41.9741,41.9741,0,0,1,21.2265-8.7817s12.9964-.8174,23.0261,6.7065c1.2292.9222,2.3268,1.9188,2.3268,1.9189a16.946,16.946,0,0,1,1.747,1.7063c.3753.4622.84.8466,1.2146,1.31.18.2227.3316.4265.5886.4763.3945.0764.7572-.2643,1.0012-.4818.2481-.221,1.4232-1.0224,3.7733-2.6249.0763-.052.0636-.043.4909-.33,1.5072-1.0115,2.8769-1.9368,4.6654-3.148,3.0958-2.0965,4.6436-3.1448,5.1234-3.4753,3.0264-2.0847,5.1957-3.6723,6.1125-4.338,2.7844-2.0216,7.6085-5.4087,16.5691-11.422.4982-.3677,1.2881-.9407,2.2844-1.6193,1.2654-.8619,1.8858-1.3107,2.5736-1.7639l.0039-.0026a22.532,22.532,0,0,0,2.52-1.81.1633.1633,0,0,0,.0052-.0675c-.0094-.0531-.049-.0789-.0882-.1244a.9317.9317,0,0,1-.083-.1453s-.06-.115-.1037-.2281a2.4984,2.4984,0,0,1-.0261-1.4786,2.8229,2.8229,0,0,1,1.13-1.51c.0232-.0146.0033-.0015.3229-.174.6142-.3315.6609-.3655,1.3539-.7519.8164-.4552,1.0248-.56,1.0215-.74-.0013-.0725-.0359-.0792-.2926-.4235-.1036-.139-.2634-.3533-.4234-.5929-.2023-.3028-.2167-.3641-.3289-.4274-.15-.0846-.2225-.0306-.4719-.0808a1.5777,1.5777,0,0,1-.6282-.2867,1.3954,1.3954,0,0,1-.4326-.6029,1.6709,1.6709,0,0,1,.4711-1.8656,1.58,1.58,0,0,1,2.5324,1.3738,1.219,1.219,0,0,1-.067.33.2015.2015,0,0,0-.0309.1082.2191.2191,0,0,0,.0619.134c.1671.1893.3.4066.4587.603.1347.1667.2348.312.2982.4041.1738.2522.2606.3783.2636.3846.0459.0963.0849.2066.1546.2113.0278.0018.0462-.0141.0928-.0464.0668-.0464.1415-.0806.2087-.1265.0553-.0377.1855-.1117.4438-.258.4013-.2275.602-.3412.7288-.4093a7.4524,7.4524,0,0,1,1.1382-.63c.0279-.0092.1366-.0433.14-.098.0018-.0281-.0254-.0419-.0759-.0938a2.38,2.38,0,0,1-.1563-.21c-.0464-.0609-.0743-.094-.1027-.1294-.116-.1444-.1434-.2066-.2947-.4243-.1438-.2069-.1435-.1859-.2585-.3588-.0641-.0962-.0981-.1537-.1718-.2574-.1035-.1458-.12-.15-.1327-.1865a.1022.1022,0,0,0-.0377-.0532.0943.0943,0,0,0-.0467-.0148c-.118-.0087-.3116-.0346-.3465-.04a1.399,1.399,0,0,1-.1537-.0362,1.631,1.631,0,0,1-.9046-.7213,1.576,1.576,0,0,1-.0676-1.2821,1.5273,1.5273,0,0,1,.4935-.693,1.4533,1.4533,0,0,1,.37-.2079,1.5436,1.5436,0,0,1,2.0932,1.3434,1.7121,1.7121,0,0,1-.01.28s-.01.075-.0784.3526c0,0,.06.1051.0953.1637.06.1.1111.1687.1445.2147.135.1858.1594.2419.4829.7007.569.8072.3687.4571.4887.6476.0426.0677.0652.1076.1178.1327.1692.0805.3465-.1376.83-.4388.1813-.113.1077-.052.96-.53.0963-.054.166-.0934.1884-.106.8295-.4679,1.8231-.9944,1.8232-.9944,2.68-1.42,3.1527-1.6883,4.0372-1.7013a3.8305,3.8305,0,0,1,.5733.0257s.1347.0175.26.0442a3.8537,3.8537,0,0,1,1.7811,1.2344c.2506.2872.5042.6016.5042.6016.0607.0752.193.24.384.4527.0524.0582.0963.1057.126.1375.967,1.4805,1.3238,2.0176,1.3661,2.07.0035.0043.0336.0405.0707.0926.0285.04.0493.0732.0619.0935.3759.6083.5314.9018.5314.9019a5.642,5.642,0,0,1,.4591.9684,2.4476,2.4476,0,0,1,.0591,1.0632c-.08.4254-.2987.7837-1.1577,1.63-.4681.4611-.7469.6934-1.3017,1.1826-1.6687,1.4709-1.5517,1.4895-2.3606,2.1252-.34.2677-.6493.5736-.9845.8478-.514.4205-.7009.5388-.7163.7686-.0089.1329.1546.3586.4817.8046.2566.35.564.7345.564.7345l.2267.0132a1.54,1.54,0,0,1,.8209.3579,1.5689,1.5689,0,0,1,.4893.7422,1.6665,1.6665,0,0,1-.243,1.3825,1.54,1.54,0,0,1-.5007.4177,1.5571,1.5571,0,0,1-.8121.1776,1.6124,1.6124,0,0,1-1.0993-.5593,1.5761,1.5761,0,0,1-.3342-1.213,1.2568,1.2568,0,0,1,.0638-.244.1521.1521,0,0,0,.0305-.0947c-.0044-.0349-.026-.0537-.078-.1184-.0231-.0288-.0438-.0594-.067-.0882-.0461-.0575-.1065-.1408-.2273-.3073-.2839-.3914-.4259-.5871-.44-.6206-.0444-.1048-.16-.1706-.1993-.2775-.007-.019-.0272-.0789-.0629-.0828a.063.063,0,0,0-.046.023,1.4813,1.4813,0,0,0-.1442.1242c-.0155.0191-.024.0251-.5658.4733-.3445.2849-.5182.4283-.5767.4805-.1058.0942-.1742.1589-.3075.2691-.1482.1224-.2015.1563-.3556.2787-.27.2148-.4054.3221-.4195.3756-.0423.1608.1186.23.5923.8886a3.3117,3.3117,0,0,1,.3776.4944.3335.3335,0,0,0,.1347.16.3074.3074,0,0,0,.1645.035,1.8659,1.8659,0,0,1,.7536.237,1.3522,1.3522,0,0,1,.5022.5286,1.5517,1.5517,0,0,1-1.1245,2.32,1.6373,1.6373,0,0,1-1.5989-.82,1.5049,1.5049,0,0,1-.1262-.3086,1.68,1.68,0,0,1-.0071-.6382.8228.8228,0,0,0,.0422-.3507c-.0262-.1312-.0953-.1949-.2525-.3927,0,0-.1324-.1665-.2945-.4-.2629-.3781-.3482-.6089-.4839-.5961a.1439.1439,0,0,0-.0772.0351,7.618,7.618,0,0,0-.9257.8064,6.8666,6.8666,0,0,1-1.0449.8907,4.9312,4.9312,0,0,1-1.0309.6592,2.6431,2.6431,0,0,1-.7293.2384,1.9521,1.9521,0,0,1-1.4587-.26c-.3263-.2526-.4531-.6145-.68-.575a.2909.2909,0,0,0-.1684.1122,13.585,13.585,0,0,1-1.2272,1.0239c-.9006.8648-1.8173.993-1.7683,1.2s.973.0844,2.6809.0335c2.0667-.0617,2.3167.0705,4.256-.0335.9679-.052,1.67-.1259,2.0777-.1676,3.3512-.3421,6.9519-.5515,8.1489-.6466,6.7125-.5332,19.9965-3.9942,20.5485-4.1391,5.27-1.383,12.0074-3.3537,19.7577-6.15,6.1071-1.702,15.4882-5.03,23.6015-11.3779a28.8142,28.8142,0,0,0,6.919-7.3034,24.1123,24.1123,0,0,0,4.0746-11.6855C285.3858,115.6921,281.3858,110.09,279.2659,107.12Z"/><path class="cls-1" d="M197.8318,221.974c-.1646-1.3481-.3481-2.7473-.5618-4.2653-.8464-6.0109-1.6694-10.2236-3.3122-18.65-1.2633-6.48-2.207-10.7188-3.3931-14.7593-.424-1.4442-.5993-1.91-.9589-3.2983-.6191-2.3894-1.2362-5.3951-2.4258-9.0592-.3718-1.1455-.52-1.4962-.7226-1.6669a1.5561,1.5561,0,0,0-.1315-.0863c-.9834-.5671-8.5113,5.6867-9.1846,6.2445-1.4244,1.18-4.452,3.3863-10.5071,7.7988-2.8737,2.094-3.9483,2.8715-3.9484,2.8715-2.8708,2.0767-3.4624,2.48-5.123,3.72-2.5756,1.9223-2.5429,1.9889-3.3057,2.5-.5094.3415-.9323.8065-1.4585,1.1216-.3119.1868-.6355.35-.6852.6526-.0462.2817.172.5183.3263.7179a15.44,15.44,0,0,1,.7832,1.86,44.8267,44.8267,0,0,1,1.37,4.4378c3.8769,16.394-5.8394,30.6081-5.84,30.6082-4.1184,6.0248-13.3339,15.9631-19.9453,13.3764a9.89,9.89,0,0,1-2.0648-1.09c-1.0884-.8014-1.2912-1.3938-2.2709-2.11a8.3187,8.3187,0,0,0-2.4456-1.101c-3.0642-.865-7.8662,1.6094-10.954,3.2795a78.7508,78.7508,0,0,0-9.4082,5.4836,51.1118,51.1118,0,0,0-8.2558,7.5914,21.2249,21.2249,0,0,0-3.56,5.6232c-.23.5462-.3946,1.008-.5006,1.3213a2.4378,2.4378,0,0,0-.1323.4963,2.8075,2.8075,0,0,0,.1985,1.4558,11.6181,11.6181,0,0,0,.9926,2.0513,24.7114,24.7114,0,0,0,1.8674,2.6911c1.0931,1.2621,1.8231,1.668,2.19,2.884l0,.0014c.4065,1.3365.0259,2.702-.8561,4.5817a21.2728,21.2728,0,0,1-1.6835,3.07c-3.6146,5.0319-7.3658,6.6668-6.9567,7.9923.3307,1.0715,3.02.7769,10.0906,1.4084,3.3574.3,3.8022.46,6.5758.7424a255.7647,255.7647,0,0,0,36.9625.9546,148.41,148.41,0,0,0,26.7275-3.6061c14.7007-3.4561,20.8824-7.7891,24.5533-11.03a29.0985,29.0985,0,0,0,7.996-10.7234c.5031-1.2255,1.37-3.6086,1.9595-9.2394.6879-6.5728.1912-12.7307-.8022-25.0465C198.8382,231.3747,198.4769,227.2586,197.8318,221.974Z"/><path class="cls-7" d="M203.3482,146.3066c1.59,2.45,1.74,2.94,1.64,3.44a2.1048,2.1048,0,0,1-.72,1.14c-5.13,4.8-7.98,6.95-10.19,8.86-2.18,1.9-3.65,3.5-4.93,3.01a1.8946,1.8946,0,0,1-.95-.92l-5.5-7.66a2.0008,2.0008,0,0,1,.46-2.79l14.1-8.01a3.668,3.668,0,0,1,3.08-.45,5.5475,5.5475,0,0,1,1.94,1.84A18.4167,18.4167,0,0,1,203.3482,146.3066Z"/><path class="cls-6" d="M200.5982,159.7566l-.83-1.16a1.127,1.127,0,0,1,.32-.05,1.035,1.035,0,1,1-.82.41l.83,1.16Z"/><path class="cls-6" d="M199.7682,158.5966l.83,1.16-.5.36-.83-1.16A1.0133,1.0133,0,0,1,199.7682,158.5966Z"/><path class="cls-6" d="M198.2582,156.4966l1.51,2.1a1.0133,1.0133,0,0,0-.5.36l-1.51-2.1Z"/><path class="cls-6" d="M196.8682,162.8266l-.83-1.15a1.127,1.127,0,0,1,.32-.05,1.025,1.025,0,1,1-1.03,1.02,1,1,0,0,1,.21-.61l.83,1.16Z"/><path class="cls-6" d="M196.0382,161.6766l.83,1.15-.5.37-.83-1.16A1.0133,1.0133,0,0,1,196.0382,161.6766Z"/><path class="cls-6" d="M194.5282,159.5766l1.51,2.1a1.0133,1.0133,0,0,0-.5.36l-1.51-2.1Z"/><path class="cls-6" d="M189.5182,144.2166l1.51,2.1-.5.37-1.52-2.11A.9427.9427,0,0,0,189.5182,144.2166Z"/><path class="cls-6" d="M189.7182,143.6066a.9922.9922,0,0,1-.2.61l-.83-1.15-.5.36.82,1.15a1.0588,1.0588,0,0,1-.31.05,1.025,1.025,0,1,1,1.02-1.02Z"/><path class="cls-6" d="M188.6882,143.0666l.83,1.15a.9427.9427,0,0,1-.51.36l-.82-1.15Z"/><path class="cls-6" d="M143.0382,194.8366q-25.875,19.065-51.76,38.12a6.9738,6.9738,0,0,0-.35-2.6c-.09-.56-.22-1.1-.34-1.63a31.3492,31.3492,0,0,0-.89-3.19,15.7158,15.7158,0,0,0-2.86-4.83c-.09-.1-.18-.19-.27-.28l.04-.04q25.065-16.785,50.3-34.02,9.915-6.795,19.87-13.65,12.93-8.925,25.71-17.84l5.39,6.95Q165.4532,178.3416,143.0382,194.8366Z"/><path class="cls-6" d="M185.3982,146.7566l1.51,2.1-.5.36-1.51-2.1A1.0133,1.0133,0,0,0,185.3982,146.7566Z"/><path class="cls-6" d="M185.6082,146.1366a1.03,1.03,0,0,1-.21.62l-.83-1.16-.5.36.83,1.16a1.127,1.127,0,0,1-.32.05,1.025,1.025,0,1,1,1.03-1.03Z"/><path class="cls-6" d="M184.5682,145.5966l.83,1.16a1.0133,1.0133,0,0,1-.5.36l-.83-1.16Z"/><path class="cls-7" d="M34.6682,242.3366c.48.63,1.01,1.29,1.58,1.96.54.64,1.08,1.23,1.61,1.79a7.2534,7.2534,0,0,0,1.04,1.17c.26.25.54.48.82.71.45.46.91.89,1.38,1.33.02.02.05.07.09.12a5.5369,5.5369,0,0,0,1.18,1.12c.71.51,1.32,1.13,1.98,1.69.31.26.75.65,1.3,1.12l.01.01c.3.25.6.5.93.75.63.5,1.25.93,1.85,1.33.3.21.72.51,1.23.86.78.54,1.19.83,1.71,1.14a18.5886,18.5886,0,0,0,1.89.97q.495.33,1.11.66a12.9708,12.9708,0,0,0,1.2.58c.04.01.07.03.11.04.9.4,1.69.7,2.33.92.93.31,1.67.51,2.07.62.37.09.69.17.93.23.66.12,1.33.18,1.96.27a15.1846,15.1846,0,0,0,3.5.13c.75-.07,1.49-.18,2.22-.3.28-.03.56-.07.83-.12a2.4374,2.4374,0,0,0,.26-.06c.01,0,.03-.01.04-.01a5.77,5.77,0,0,0,1.23-.35c.8-.15,1.59-.38,2.36-.6a7.2,7.2,0,0,0,1.96-.98c.08-.05.15-.1.23-.15a21.2012,21.2012,0,0,0,2.49-1.41,20.9642,20.9642,0,0,0,3.44-2.86,22.3364,22.3364,0,0,0,2.35-2.47c.53-.66,1.08-1.44,2.2-2.99.24-.34.44-.62.58-.81.5-.93.99-1.85,1.49-2.77l.3-.7a25.1282,25.1282,0,0,0,1.66-4.08,24.6914,24.6914,0,0,0,1.06-6.92v-.07a10.6963,10.6963,0,0,0,.1-1.25q25.89-19.05,51.76-38.12a34.95,34.95,0,0,1,3.84,14.53c.68,19.56-16.3,37.76-25.46,36.3-3.01-.48-3.34-3.35-7.43-4.37-1.35-.33-5.35-1.04-16.09,5.74-15.47,9.76-17.75,17.9-17.56,18.99a9.5827,9.5827,0,0,0,1.08,2.97c1.53,3.1,3.43,4.07,4.09,5.18,1.87,3.2-4.05,11.74-12.28,18.01-5.1,3.89-17.91,13.73-35.49,11.01a44.23,44.23,0,0,1-25.4-13.66l.26-.24c10.25-7.83,14.69-11.78,16.64-13.9a27.98,27.98,0,0,1,6.15-5.04,21.0216,21.0216,0,0,1,2.28-1.19c6.04-2.72,10.85-1.2,11.62-3.37.3-.83-.25-1.43-4.67-7.04-3.92-4.99-5.74-7.38-7.08-6.93-.26.08-.53.48-1.13,1.24a18.2791,18.2791,0,0,0-2.03,3.54c-.81,1.67-.75,1.73-1.39,2.95a17.4179,17.4179,0,0,1-1.45,2.45,11.5642,11.5642,0,0,1-2.31,2.32c-1.81,1.4-9.69,8.46-21.01,18.69l-.65.42a42.66,42.66,0,0,1-5.65-12.79c-.05-.23-.13-.53-.22-.92-.59-2.49-4.79-21.72,7.11-35.7a35.3839,35.3839,0,0,1,15.92-10.46,9.5191,9.5191,0,0,0,.46,1.51,22.0034,22.0034,0,0,0,1,2.14c.19.47.38.95.57,1.43a38.0158,38.0158,0,0,0,1.62,3.7,15.87,15.87,0,0,0,1.43,2.25,15.142,15.142,0,0,0,1.63,3.02c.02.03.03.07.05.1A46.211,46.211,0,0,0,34.6682,242.3366Z"/><path class="cls-7" d="M136.6882,186.0366l.22.33q-25.23,17.25-50.3,34.02l-.04.04-.57-.6c-.31-.33-.62-.64-.93-.95a7.3121,7.3121,0,0,0-1.04-1.11,6.6934,6.6934,0,0,0-1.23-.85c-.18-.18-.37-.36-.55-.54-.58-.61-1.15-1.22-1.73-1.83-1.11-1.17-2.32-2.19-3.53-3.26-.91-.79-1.65-1.75-2.59-2.5,4.96-4.54,9.94-10.34,8.35-14.76-.36-1.02-.8-1.3-1.05-2.23-1.22-4.49,7.95-12.6,16.85-15.77,12.82-4.56,28.26-.64,36.71,8.36C135.8582,185.0266,136.3382,185.6066,136.6882,186.0366Z"/><path class="cls-6" d="M44.6182,258.7566c4.42,5.61,4.97,6.21,4.67,7.04-.77,2.17-5.58.65-11.62,3.37a21.0216,21.0216,0,0,0-2.28,1.19,27.98,27.98,0,0,0-6.15,5.04c-1.95,2.12-6.39,6.07-16.64,13.9l-.26.24a42.0566,42.0566,0,0,1-4.77-6.1l.65-.42c11.32-10.23,19.2-17.29,21.01-18.69a11.5642,11.5642,0,0,0,2.31-2.32,17.4179,17.4179,0,0,0,1.45-2.45c.64-1.22.58-1.28,1.39-2.95a18.2791,18.2791,0,0,1,2.03-3.54c.6-.76.87-1.16,1.13-1.24C38.8782,251.3766,40.6982,253.7666,44.6182,258.7566Z"/><polygon class="cls-3" points="199.768 158.597 200.598 159.757 200.098 160.117 199.268 158.957 197.758 156.857 198.258 156.497 199.768 158.597"/><path class="cls-3" d="M199.7682,158.5966a1.127,1.127,0,0,1,.32-.05,1.035,1.035,0,1,1-.82.41A1.0133,1.0133,0,0,1,199.7682,158.5966Z"/><polygon class="cls-3" points="196.038 161.677 196.868 162.827 196.368 163.197 195.538 162.037 194.028 159.937 194.528 159.577 196.038 161.677"/><path class="cls-3" d="M196.0382,161.6766a1.127,1.127,0,0,1,.32-.05,1.025,1.025,0,1,1-1.03,1.02,1,1,0,0,1,.21-.61A1.0133,1.0133,0,0,1,196.0382,161.6766Z"/><polygon class="cls-3" points="184.898 147.117 184.068 145.957 184.568 145.597 185.398 146.757 186.908 148.857 186.408 149.217 184.898 147.117"/><path class="cls-3" d="M184.8982,147.1166a1.127,1.127,0,0,1-.32.05,1.0141,1.0141,0,1,1,.32-.05Z"/><polygon class="cls-3" points="189.008 144.577 188.188 143.427 188.688 143.067 189.518 144.217 191.028 146.317 190.528 146.687 189.008 144.577"/><path class="cls-3" d="M189.0082,144.5766a1.0588,1.0588,0,0,1-.31.05,1.025,1.025,0,1,1,1.02-1.02.9922.9922,0,0,1-.2.61A.9427.9427,0,0,1,189.0082,144.5766Z"/><path class="cls-3" d="M142.8572,194.9337a35.0116,35.0116,0,0,1,4.0225,14.8807c.6753,19.5549-16.3036,37.7571-25.4656,36.3-3.0066-.4783-3.3331-3.3568-7.4283-4.3705-1.3451-.333-5.344-1.0424-16.086,5.7335-15.472,9.76-17.7466,17.899-17.56,18.9929a9.6393,9.6393,0,0,0,1.074,2.9679v0c1.5345,3.1055,3.4357,4.07,4.0909,5.1876,1.8734,3.196-4.0435,11.7381-12.2752,18.0091-5.1054,3.8894-17.91,13.7286-35.4933,11.0058A44.562,44.562,0,0,1,1.923,271.0874c-.0571-.2229-.1351-.53-.2261-.9145-.59-2.4916-4.7915-21.72,7.1155-35.7057A35.8157,35.8157,0,0,1,25.9778,223.614"/><path class="cls-3" d="M74.1822,209.4268C79.21,204.8643,84.36,198.9646,82.75,194.47c-.3659-1.021-.7972-1.2943-1.0521-2.2311-1.2221-4.4912,7.9524-12.5966,16.8551-15.7639,12.8167-4.56,28.2544-.64,36.7028,8.3539.6074.6467,1.0875,1.2226,1.43,1.653"/><path class="cls-4" d="M86.5306,220.8773q34.9747-23.3889,70.252-47.72,12.9194-8.9133,25.7041-17.835"/><path class="cls-4" d="M90.7613,233.784l97.1164-71.51"/><path class="cls-3" d="M8.2158,283.47c11.3214-10.2387,19.208-17.2969,21.0113-18.6968a11.5546,11.5546,0,0,0,2.3174-2.3205,16.8441,16.8441,0,0,0,1.4461-2.4477c.6351-1.2182.5788-1.2812,1.3849-2.9476a18.3122,18.3122,0,0,1,2.0378-3.5466c.5916-.7591.8709-1.1514,1.1215-1.2361,1.3428-.4539,3.1663,1.945,7.0884,6.93,4.4144,5.61,4.9674,6.21,4.67,7.0393-.777,2.1669-5.5823.6564-11.625,3.3724a20.5844,20.5844,0,0,0-2.2776,1.19,28.0442,28.0442,0,0,0-6.1548,5.0349c-1.95,2.1221-6.3847,6.0709-16.6365,13.8994"/><path class="cls-3" d="M188.2,162.2811l-5.5-7.6546a2,2,0,0,1,.4573-2.7912l14.1015-8.0062a3.6819,3.6819,0,0,1,3.0847-.4572,5.605,5.605,0,0,1,1.9353,1.8383c.1141.142.3394.4287,1.07,1.5484,1.5941,2.4421,1.7375,2.94,1.6412,3.4351a2.1386,2.1386,0,0,1-.7252,1.145c-5.13,4.7977-7.9766,6.9423-10.1829,8.8584-2.1848,1.8973-3.6542,3.4945-4.9313,3.0116A1.8979,1.8979,0,0,1,188.2,162.2811Z"/><rect class="cls-3" x="197.1708" y="158.4451" width="4.0124" height="0.6186" transform="translate(211.8886 -95.6328) rotate(54.304)"/><circle class="cls-3" cx="200.0868" cy="160.0207" r="1.0248"/><rect class="cls-3" x="193.4409" y="161.5211" width="4.0124" height="0.6186" transform="translate(212.8332 -91.3225) rotate(54.304)"/><circle class="cls-3" cx="196.3569" cy="163.0967" r="1.0248"/><rect class="cls-3" x="183.4836" y="147.5457" width="4.0124" height="0.6186" transform="translate(173.6429 384.7669) rotate(-125.6958)"/><circle class="cls-3" cx="184.58" cy="146.5888" r="1.0248"/><rect class="cls-3" x="187.6026" y="145.0113" width="4.0124" height="0.6186" transform="translate(182.2235 384.0988) rotate(-125.6958)"/><circle class="cls-3" cx="188.699" cy="144.0543" r="1.0248"/><path class="cls-3" d="M201.5308,80.2465c0,44.0428-42.62,79.7465-95.1947,79.7465-21.5,0-37.8736-5.9994-44.1632-9.0828-24.02-11.7758-50.9811-38.5221-51.0316-70.6637C11.0733,36.9245,59.9194.5,106.3361.5,158.9107.5,201.5308,36.2037,201.5308,80.2465Z"/><path class="cls-3" d="M176.6757,134.3149c18.0045-1.8617,28.9091-7.8251,35.6069-13.0775,3.03-2.3761,12.2979-10.1737,20.7157-17.4663,8.1155-7.0307,10.0284-8.903,13.9679-9.66,12.559-2.4138,23.66,10.7448,24.2142,11.42,2.06,2.5093,7.4425,9.0645,6.9053,18.1433-.477,8.0634-5.35,13.5-8.2592,16.6539-2,2.1687-7.1745,7.3086-29.8352,14.9686-11.8049,3.99-23.9767,8.0192-41.0032,9.5823a151.5843,151.5843,0,0,1-15.5151.6266"/><path class="cls-3" d="M35.4112,134.09a107.0923,107.0923,0,0,0-15.2845,48.756c-.3956,6.9833-2.58,45.5409,22.8928,67.5818,4.8057,4.1582,15.1465,13.1058,26.84,10.5732,12.92-2.7981,22.55-18.5405,20.74-30.9064-1.6717-11.4177-12.148-13.4727-22.3645-28.8334a74.783,74.783,0,0,1-11.6905-33.4892"/><path class="cls-3" d="M179.1948,168.782a278.6858,278.6858,0,0,1,13.0693,66.8624c1.23,17.3026,1.7715,26.1086-1.83,33.69C173.8316,304.2893,87.0274,292.6786,79.8078,291.65"/><path class="cls-3" d="M170.2055,163.8315a16.4867,16.4867,0,0,1-7.9152-1.96q-.31-.1712-.6033-.352"/><path class="cls-3" d="M52.0311,16.2862A21.7137,21.7137,0,1,0,22.2505,45.8683"/></g></g></svg>